<svg id="Error" xmlns="http://www.w3.org/2000/svg" viewBox="0 0 32 32"><defs><style>.cls-1{fill:#ff534a;}.cls-2{fill:#404040;}</style></defs><title>error</title><path class="cls-1" d="M20.54,4h-10l-8,8V22l8,8h10l8-8V12ZM14.06,8.64a.46.46,0,0,1,.25-.19,1.7,1.7,0,0,1,.49-.11,5.75,5.75,0,0,1,.78,0,7.64,7.64,0,0,1,.77,0,2.05,2.05,0,0,1,.49.12.54.54,0,0,1,.26.19.44.44,0,0,1,.07.26l-.3,10.64a.48.48,0,0,1-.07.21.39.39,0,0,1-.21.16,1.54,1.54,0,0,1-.4.1A4.75,4.75,0,0,1,15,20a1.36,1.36,0,0,1-.39-.1.39.39,0,0,1-.21-.16.48.48,0,0,1-.07-.21L14,8.91A.5.5,0,0,1,14.06,8.64Zm3.09,15.15a1.15,1.15,0,0,1-.26.53,1.07,1.07,0,0,1-.51.29,3,3,0,0,1-.8.09,3,3,0,0,1-.8-.09,1,1,0,0,1-.51-.29,1.07,1.07,0,0,1-.27-.53,3.6,3.6,0,0,1-.07-.8,3.89,3.89,0,0,1,.07-.83,1.15,1.15,0,0,1,.27-.54,1,1,0,0,1,.51-.29,3,3,0,0,1,.8-.09,3,3,0,0,1,.8.09,1.07,1.07,0,0,1,.51.29,1.24,1.24,0,0,1,.26.54,3.28,3.28,0,0,1,.08.83A3,3,0,0,1,17.15,23.79Z"/><path class="cls-2" d="M14.36,19.76a.39.39,0,0,0,.21.16A1.36,1.36,0,0,0,15,20a4.75,4.75,0,0,0,1.23,0,1.54,1.54,0,0,0,.4-.1.39.39,0,0,0,.21-.16.48.48,0,0,0,.07-.21l.3-10.64a.44.44,0,0,0-.07-.26.54.54,0,0,0-.26-.19,2.05,2.05,0,0,0-.49-.12,7.64,7.64,0,0,0-.77,0,5.75,5.75,0,0,0-.78,0,1.7,1.7,0,0,0-.49.11.46.46,0,0,0-.25.19.5.5,0,0,0-.07.27l.3,10.64A.48.48,0,0,0,14.36,19.76Z"/><path class="cls-2" d="M16.89,21.62a1.07,1.07,0,0,0-.51-.29,3,3,0,0,0-.8-.09,3,3,0,0,0-.8.09,1,1,0,0,0-.51.29,1.15,1.15,0,0,0-.27.54,3.89,3.89,0,0,0-.07.83,3.6,3.6,0,0,0,.07.8,1.07,1.07,0,0,0,.27.53,1,1,0,0,0,.51.29,3,3,0,0,0,.8.09,3,3,0,0,0,.8-.09,1.07,1.07,0,0,0,.51-.29,1.15,1.15,0,0,0,.26-.53,3,3,0,0,0,.08-.8,3.28,3.28,0,0,0-.08-.83A1.24,1.24,0,0,0,16.89,21.62Z"/></svg>