<svg xmlns="http://www.w3.org/2000/svg" viewBox="0 0 32 32"><defs><style>.cls-1{fill:#fff;}.cls-2{fill:#404040;}</style></defs><title>information</title><g id="Info"><path class="cls-1" d="M27,23a12,12,0,0,0,3-8c0-5-4-13-13-13S4,10,4,15,9,28,17,28a12,12,0,0,0,4.53-.69l6,3c.67.42.47-.31.47-.31ZM15.42,7.06a.46.46,0,0,1,.25-.19,1.66,1.66,0,0,1,.49-.12q.32,0,.78,0a5.5,5.5,0,0,1,.77,0,2.05,2.05,0,0,1,.49.12.6.6,0,0,1,.26.18.5.5,0,0,1,.07.27L18.23,18a.48.48,0,0,1-.07.21.53.53,0,0,1-.21.16,1.92,1.92,0,0,1-.4.1,5.16,5.16,0,0,1-.61,0,5.22,5.22,0,0,1-.62,0,1.8,1.8,0,0,1-.39-.1.53.53,0,0,1-.21-.16.48.48,0,0,1-.07-.21l-.3-10.64A.5.5,0,0,1,15.42,7.06Zm3.1,15.15a1,1,0,0,1-.78.82,4,4,0,0,1-1.6,0,1.06,1.06,0,0,1-.51-.29,1.07,1.07,0,0,1-.27-.53,3.75,3.75,0,0,1-.07-.81,3.79,3.79,0,0,1,.07-.82,1.06,1.06,0,0,1,.27-.54,1,1,0,0,1,.51-.3,4,4,0,0,1,1.6,0,1.08,1.08,0,0,1,.51.3,1.15,1.15,0,0,1,.27.54,3.79,3.79,0,0,1,.07.82A3.75,3.75,0,0,1,18.52,22.21Z"/><path class="cls-2" d="M15.72,18.18a.53.53,0,0,0,.21.16,1.8,1.8,0,0,0,.39.1,5.22,5.22,0,0,0,.62,0,5.16,5.16,0,0,0,.61,0,1.92,1.92,0,0,0,.4-.1.53.53,0,0,0,.21-.16.48.48,0,0,0,.07-.21l.3-10.64a.5.5,0,0,0-.07-.27.6.6,0,0,0-.26-.18,2.05,2.05,0,0,0-.49-.12,5.5,5.5,0,0,0-.77,0q-.47,0-.78,0a1.66,1.66,0,0,0-.49.12.46.46,0,0,0-.25.19.5.5,0,0,0-.07.27L15.65,18A.48.48,0,0,0,15.72,18.18Z"/><path class="cls-2" d="M18.25,20a1.08,1.08,0,0,0-.51-.3,4,4,0,0,0-1.6,0,1,1,0,0,0-.51.3,1.06,1.06,0,0,0-.27.54,3.79,3.79,0,0,0-.07.82,3.75,3.75,0,0,0,.07.81,1.07,1.07,0,0,0,.27.53,1.06,1.06,0,0,0,.51.29,4,4,0,0,0,1.6,0,1,1,0,0,0,.78-.82,3.75,3.75,0,0,0,.07-.81,3.79,3.79,0,0,0-.07-.82A1.15,1.15,0,0,0,18.25,20Z"/></g></svg>