<svg height='40px' width='40px'  fill="#FFFFFF" xmlns="http://www.w3.org/2000/svg" xmlns:xlink="http://www.w3.org/1999/xlink" version="1.1" x="0px" y="0px" 
	 viewBox="500 0 400 400" enable-background="new 500 0 400 400" xml:space="preserve"><path d="M700,100c-9.2,0-16.7,7.5-16.7,16.7s7.5,16.7,16.7,16.7h100c9.2,0,16.7-7.5,16.7-16.7S809.2,100,800,100H700z  "></path><path d="M586.1,190.8c-0.3,0.4-0.4,1-0.6,1.5c-0.5,0.9-0.9,1.9-1.2,2.9c-0.2,0.6-0.5,1.1-0.7,1.7  c-0.1,0.6,0,1.1,0,1.7c0,0.5-0.3,1-0.3,1.5s0.3,1,0.3,1.5c0.1,0.6-0.1,1.1,0,1.7c0.1,0.6,0.5,1.1,0.7,1.7c0.3,1,0.7,2,1.2,2.9  c0.3,0.5,0.3,1,0.6,1.5c0,0,0,0,0,0l33.3,50c3.2,4.8,8.5,7.4,13.9,7.4c3.2,0,6.4-0.9,9.2-2.8c7.7-5.1,9.7-15.5,4.6-23.1l-16.1-24.1  H800c9.2,0,16.7-7.5,16.7-16.7s-7.5-16.7-16.7-16.7H631.1l16.1-24.1c5.1-7.7,3-18-4.6-23.1c-7.7-5.1-18-3-23.1,4.6L586.1,190.8  C586.1,190.8,586.1,190.8,586.1,190.8z"></path><path d="M800,266.7H700c-9.2,0-16.7,7.5-16.7,16.7S690.8,300,700,300h100c9.2,0,16.7-7.5,16.7-16.7  S809.2,266.7,800,266.7z"></path></svg>