<svg id="Warning" xmlns="http://www.w3.org/2000/svg" viewBox="0 0 32 32"><defs><style>.cls-1{fill:#ffc107;}.cls-2{fill:#404040;}</style></defs><title>warning</title><path class="cls-1" d="M28.48,26.75A13.38,13.38,0,0,0,27.75,25l-10-20c-1-2-1-2-2-2s-1,0-2,2l-10,20A13.38,13.38,0,0,0,3,26.75,1.72,1.72,0,0,0,4.61,29H26.89A1.72,1.72,0,0,0,28.48,26.75ZM14.32,9.56a.5.5,0,0,1,.25-.19,1.83,1.83,0,0,1,.5-.12q.3,0,.78,0a5.5,5.5,0,0,1,.77,0,2.34,2.34,0,0,1,.49.12.56.56,0,0,1,.25.18.5.5,0,0,1,.08.27l-.31,10.64a.38.38,0,0,1-.07.21.43.43,0,0,1-.2.16,2.1,2.1,0,0,1-.4.1,5.28,5.28,0,0,1-.61,0,5.53,5.53,0,0,1-.63,0,2.18,2.18,0,0,1-.39-.1.48.48,0,0,1-.2-.16.38.38,0,0,1-.07-.21L14.25,9.83A.6.6,0,0,1,14.32,9.56Zm3.1,15.15a1.07,1.07,0,0,1-.27.53,1.16,1.16,0,0,1-.51.29,3.43,3.43,0,0,1-.79.08,3.69,3.69,0,0,1-.81-.08,1,1,0,0,1-.77-.82,4.19,4.19,0,0,1,0-1.63,1.14,1.14,0,0,1,.26-.54,1.08,1.08,0,0,1,.51-.3,3.69,3.69,0,0,1,.81-.08,3.43,3.43,0,0,1,.79.08,1.08,1.08,0,0,1,.51.3,1.06,1.06,0,0,1,.27.54,4.19,4.19,0,0,1,0,1.63Z"/><path class="cls-2" d="M14.63,20.68a.48.48,0,0,0,.2.16,2.18,2.18,0,0,0,.39.1,5.53,5.53,0,0,0,.63,0,5.28,5.28,0,0,0,.61,0,2.1,2.1,0,0,0,.4-.1.43.43,0,0,0,.2-.16.38.38,0,0,0,.07-.21l.31-10.64a.5.5,0,0,0-.08-.27.56.56,0,0,0-.25-.18,2.34,2.34,0,0,0-.49-.12,5.5,5.5,0,0,0-.77,0q-.48,0-.78,0a1.83,1.83,0,0,0-.5.12.5.5,0,0,0-.25.19.6.6,0,0,0-.07.27l.31,10.64A.38.38,0,0,0,14.63,20.68Z"/><path class="cls-2" d="M17.15,22.54a1.08,1.08,0,0,0-.51-.3,3.43,3.43,0,0,0-.79-.08,3.69,3.69,0,0,0-.81.08,1.08,1.08,0,0,0-.51.3,1.14,1.14,0,0,0-.26.54,4.19,4.19,0,0,0,0,1.63,1,1,0,0,0,.77.82,3.69,3.69,0,0,0,.81.08,3.43,3.43,0,0,0,.79-.08,1.16,1.16,0,0,0,.51-.29,1.07,1.07,0,0,0,.27-.53,4.19,4.19,0,0,0,0-1.63A1.06,1.06,0,0,0,17.15,22.54Z"/></svg>