<!-- Copyright 2000-2023 JetBrains s.r.o. and contributors. Use of this source code is governed by the Apache 2.0 license. -->
<svg width="14" height="14" viewBox="0 0 14 14" fill="none" xmlns="http://www.w3.org/2000/svg">
    <path d="M7,14C10.866,14 14,10.866 14,7C14,3.134 10.866,0 7,0C3.134,0 0,3.134 0,7C0,10.866 3.134,14 7,14Z" style="fill:rgb(219,92,92);"/>
    <g id="questionBadge_dark.svg" transform="matrix(0.82702,0,0,0.82702,10.5022,10.1351)">
        <g transform="matrix(1,0,0,1,-3.5,-5)">
            <path d="M3.5,0C1.567,0 0,1.567 0,3.5C0,4.007 0.108,4.489 0.302,4.924L2.327,9.006L4.533,9.006L6.698,4.924C6.714,4.887 6.73,4.851 6.745,4.814C6.91,4.408 7,3.965 7,3.5C7,1.567 5.433,0 3.5,0Z" style="fill:rgb(30,31,34);fill-rule:nonzero;"/>
            <circle cx="3.387" cy="8.219" r="0.579" style="fill:rgb(206,208,214);stroke:rgb(206,208,214);stroke-width:0.2px;"/>
            <path d="M4.155,2.349C3.978,2.246 3.77,2.191 3.524,2.191C3.268,2.191 3.049,2.248 2.86,2.355C2.674,2.463 2.529,2.612 2.423,2.81C2.374,2.903 2.336,3.004 2.309,3.112C2.297,3.163 2.287,3.215 2.28,3.27C2.248,3.52 2.046,3.754 1.755,3.754L1.686,3.754C1.403,3.754 1.177,3.519 1.187,3.236L1.188,3.225C1.194,3.159 1.203,3.095 1.214,3.032C1.259,2.769 1.344,2.523 1.47,2.297L1.471,2.296C1.673,1.94 1.956,1.663 2.315,1.469C2.675,1.271 3.082,1.176 3.529,1.176C3.965,1.176 4.361,1.267 4.71,1.458C5.061,1.644 5.338,1.907 5.533,2.245C5.73,2.585 5.825,2.971 5.825,3.396C5.825,3.727 5.77,4.03 5.654,4.3C5.545,4.554 5.407,4.774 5.238,4.955L5.237,4.956L4.65,5.516C4.463,5.678 4.322,5.809 4.222,5.912C4.138,5.999 4.065,6.103 4.005,6.224L4.004,6.226C3.953,6.325 3.925,6.44 3.925,6.574C3.925,6.834 3.714,7.045 3.454,7.045L3.342,7.045C3.068,7.045 2.845,6.822 2.845,6.548C2.845,6.294 2.892,6.058 2.992,5.845C3.085,5.648 3.202,5.473 3.343,5.323C3.475,5.183 3.646,5.022 3.852,4.841C4.059,4.658 4.22,4.504 4.336,4.378L4.339,4.375C4.445,4.263 4.538,4.124 4.613,3.958L4.614,3.955C4.685,3.805 4.723,3.629 4.723,3.422C4.723,3.17 4.671,2.956 4.572,2.774C4.474,2.591 4.337,2.452 4.158,2.351L4.155,2.349Z" style="fill:rgb(206,208,214);fill-rule:nonzero;"/>
        </g>
    </g>
</svg>
