<?xml version="1.0" encoding="UTF-8" standalone="no"?>
<!DOCTYPE svg PUBLIC "-//W3C//DTD SVG 1.1//EN" "http://www.w3.org/Graphics/SVG/1.1/DTD/svg11.dtd">
<svg width="20px" height="20px" viewBox="0 0 100 100" version="1.1" xmlns="http://www.w3.org/2000/svg" xmlns:xlink="http://www.w3.org/1999/xlink" xml:space="preserve" xmlns:serif="http://www.serif.com/" style="fill-rule:evenodd;clip-rule:evenodd;stroke-linejoin:round;stroke-miterlimit:2;">
    <g transform="matrix(2.73585,0,0,2.73585,-93.6321,-59.9057)">
        <path d="M66.335,28.056C67.342,29.719 67.964,30.856 68.583,32.131C59.892,33.511 56.21,39.076 56.21,39.076C56.21,39.076 64.048,45.893 66.444,53.824C65.204,54.573 62.838,54.858 60.907,55.707C59.374,46.059 52.5,41.689 52.5,41.689C52.5,41.689 44.6,48.098 44.641,56.072C42.666,55.081 40.922,55.024 39.104,54.19C39.728,47.834 48.79,39.076 48.79,39.076C48.79,39.076 46.998,34.812 36.234,33.41C37.482,31.506 37.811,30.611 39.031,28.604C42.861,29.425 48.703,31.863 52.5,35.366C56.1,32.044 57.814,30.657 66.335,28.056Z" style="fill:#B8362E;"/>
    </g>
</svg>
